<svg width="12" height="12" viewBox="0 0 12 12" fill="none" xmlns="http://www.w3.org/2000/svg">
<path d="M5.99739 10.5834C8.52869 10.5834 10.5807 8.53138 10.5807 6.00008C10.5807 3.46879 8.52869 1.41675 5.99739 1.41675C3.46609 1.41675 1.41406 3.46879 1.41406 6.00008C1.41406 6.62151 1.69913 6.92184 2.15086 7.18626C2.60259 7.45068 3.45241 7.40679 4.03049 7.92541C4.60856 8.44406 4.64759 9.28773 4.76729 9.69768C4.88701 10.1076 5.37596 10.5834 5.99739 10.5834Z" stroke="white" stroke-width="0.8" stroke-linejoin="round"/>
<path d="M4.88159 4.63529C4.74699 4.96232 4.67969 5.34664 4.67969 5.78824C4.67969 6.20822 4.72426 6.62399 4.81346 7.03559C4.90281 7.44789 5.30951 7.70972 5.72181 7.62037C5.73679 7.61712 5.75166 7.61342 5.76641 7.60929C6.21631 7.48304 6.60811 7.31777 6.94181 7.11349C7.25379 6.92247 7.54446 6.68132 7.81389 6.38999C8.10031 6.08027 8.08144 5.59697 7.77169 5.31052C7.76284 5.30234 7.75379 5.29437 7.74456 5.28662C7.42789 5.02042 7.09644 4.78134 6.75019 4.56934C6.38866 4.34802 6.03459 4.21447 5.68796 4.16872C5.34449 4.12337 5.01346 4.31489 4.88159 4.63529Z" stroke="white" stroke-width="0.8" stroke-linejoin="round"/>
</svg>
