<svg width="20" height="20" viewBox="0 0 20 20" fill="none" xmlns="http://www.w3.org/2000/svg">
<path d="M1.74538 9.23892C1.70305 8.752 2.08686 8.33337 2.57558 8.33337H4.16664C4.62689 8.33337 4.99997 8.70646 4.99997 9.16671V17.0834C4.99997 17.5436 4.62689 17.9167 4.16664 17.9167H3.26399C2.83173 17.9167 2.47123 17.5862 2.43379 17.1556L1.74538 9.23892Z" fill="#FF6600" stroke="#FF6600" stroke-linecap="round" stroke-linejoin="round"/>
<path d="M7.5 8.90608C7.5 8.55787 7.71642 8.24621 8.03137 8.09775C8.71825 7.77396 9.88871 7.12246 10.4167 6.24192C11.0971 5.10708 11.2255 3.05669 11.2463 2.58703C11.2492 2.52129 11.2474 2.45546 11.2564 2.39027C11.3692 1.5769 12.9393 2.52709 13.5417 3.53176C13.8686 4.077 13.9105 4.79337 13.8761 5.35267C13.8393 5.95108 13.6639 6.52917 13.4918 7.1035L13.125 8.32692H17.6487C18.2013 8.32692 18.6009 8.85496 18.4507 9.38675L16.213 17.3099C16.1117 17.6688 15.7841 17.9167 15.4111 17.9167H8.33333C7.87308 17.9167 7.5 17.5436 7.5 17.0834V8.90608Z" fill="#FF6600" stroke="#FF6600" stroke-linecap="round" stroke-linejoin="round"/>
</svg>
