<svg width="20" height="20" viewBox="0 0 20 20" fill="none" xmlns="http://www.w3.org/2000/svg">
<path d="M18.2546 10.7611C18.297 11.248 17.9131 11.6666 17.4244 11.6666H15.8334C15.3731 11.6666 15 11.2935 15 10.8333V2.91663C15 2.45638 15.3731 2.08329 15.8334 2.08329H16.736C17.1683 2.08329 17.5288 2.41379 17.5662 2.84442L18.2546 10.7611Z" fill="#FF6600" stroke="#FF6600" stroke-linecap="round" stroke-linejoin="round"/>
<path d="M12.5 11.0939C12.5 11.4421 12.2836 11.7538 11.9686 11.9023C11.2818 12.226 10.1113 12.8775 9.58333 13.7581C8.90287 14.8929 8.77454 16.9433 8.75367 17.413C8.75075 17.4787 8.75262 17.5445 8.74358 17.6097C8.63079 18.4231 7.06071 17.4729 6.45833 16.4682C6.13142 15.923 6.0895 15.2066 6.12387 14.6473C6.16067 14.0489 6.33612 13.4708 6.50825 12.8965L6.875 11.6731H2.35129C1.79867 11.6731 1.39912 11.145 1.54933 10.6133L3.78696 2.69013C3.88833 2.33117 4.21592 2.08329 4.58892 2.08329H11.6667C12.1269 2.08329 12.5 2.45638 12.5 2.91663V11.0939Z" fill="#FF6600" stroke="#FF6600" stroke-linecap="round" stroke-linejoin="round"/>
</svg>
