<svg width="20" height="20" viewBox="0 0 20 20" fill="none" xmlns="http://www.w3.org/2000/svg">
<path d="M10.9008 3.89954C10.5322 3.15684 9.47183 3.15956 9.10704 3.90415L7.68437 6.80805C7.53907 7.10464 7.2567 7.31035 6.92986 7.35775L3.66877 7.83062C2.84906 7.94949 2.52094 8.9563 3.11321 9.53533L5.48054 11.8497C5.71658 12.0805 5.82353 12.4129 5.76637 12.738L5.21118 15.8955C5.06684 16.7163 5.93104 17.3431 6.6665 16.9511L9.52887 15.4251C9.82288 15.2684 10.1756 15.2684 10.4697 15.4251L13.3361 16.9529C14.071 17.3446 14.9347 16.7189 14.7916 15.8984L14.2397 12.7367C14.1831 12.4123 14.2898 12.0808 14.5251 11.8504L16.8907 9.53363C17.4819 8.95462 17.1542 7.94905 16.3353 7.82965L13.0981 7.35761C12.7733 7.31026 12.4925 7.1066 12.3466 6.81264L10.9008 3.89954Z" stroke="white" stroke-width="1.5" stroke-linejoin="round"/>
</svg>
