<svg width="24" height="24" viewBox="0 0 24 24" fill="none" xmlns="http://www.w3.org/2000/svg">
<path d="M9.5 2.5C9.79674 2.5 10.0786 2.63144 10.2686 2.85938L12.4688 5.5H20.5C21.6046 5.5 22.5 6.39542 22.5 7.5V20.5C22.5 21.6046 21.6046 22.5 20.5 22.5H3.5C2.39544 22.5 1.5 21.6046 1.5 20.5V4.5C1.5 3.39543 2.39543 2.5 3.5 2.5H9.5ZM8.97461 13C8.42232 13 7.97461 13.4477 7.97461 14C7.97461 14.5523 8.42232 15 8.97461 15H14.9746C15.5269 15 15.9746 14.5523 15.9746 14C15.9746 13.4477 15.5269 13 14.9746 13H8.97461Z" fill="white"/>
</svg>
