<svg width="24" height="24" viewBox="0 0 24 24" fill="none" xmlns="http://www.w3.org/2000/svg">
<path d="M20 22.0005C21.1046 22.0005 22 21.1051 22 20.0005V10.9617C22 10.3542 21.7238 9.77954 21.2494 9.4L13.2494 3C12.519 2.41565 11.481 2.41565 10.7506 3L2.75061 9.4C2.27618 9.77954 2 10.3542 2 10.9617V20.0005C2 21.1051 2.89543 22.0005 4 22.0005H6C7.10457 22.0005 8 21.1051 8 20.0005V15.0005C8 13.8959 8.89543 13.0005 10 13.0005H14C15.1046 13.0005 16 13.8959 16 15.0005V20.0005C16 21.1051 16.8954 22.0005 18 22.0005H20Z" stroke="#A1A1A1" stroke-width="2" stroke-linejoin="round"/>
<path d="M12 22.0005V17.0005" stroke="#A1A1A1" stroke-width="2" stroke-linecap="round" stroke-linejoin="round"/>
</svg>
