<svg width="18" height="18" viewBox="0 0 18 18" fill="none" xmlns="http://www.w3.org/2000/svg">
<path fill-rule="evenodd" clip-rule="evenodd" d="M1.875 3.75C1.875 3.33579 2.21079 3 2.625 3H15.375C15.7892 3 16.125 3.33579 16.125 3.75V14.25C16.125 14.6642 15.7892 15 15.375 15H2.625C2.21079 15 1.875 14.6642 1.875 14.25V3.75Z" stroke="white" stroke-width="1.2" stroke-linecap="round" stroke-linejoin="round"/>
<path fill-rule="evenodd" clip-rule="evenodd" d="M5.4375 6.75C5.74815 6.75 6 6.49815 6 6.1875C6 5.87685 5.74815 5.625 5.4375 5.625C5.12685 5.625 4.875 5.87685 4.875 6.1875C4.875 6.49815 5.12685 6.75 5.4375 6.75Z" stroke="white" stroke-width="1.2" stroke-linecap="round" stroke-linejoin="round"/>
<path d="M5.625 9L7.5 10.5L9.75 7.875L16.125 12.75V14.25C16.125 14.6642 15.7892 15 15.375 15H2.625C2.21079 15 1.875 14.6642 1.875 14.25V12.75L5.625 9Z" stroke="white" stroke-width="1.2" stroke-linejoin="round"/>
</svg>
