<svg width="28" height="28" viewBox="0 0 28 28" fill="none" xmlns="http://www.w3.org/2000/svg">
<path d="M13.998 1.1665C21.0856 1.16668 26.8311 6.91294 26.8311 14.0005C26.8308 21.0878 21.0854 26.8333 13.998 26.8335C6.9107 26.8333 1.16433 21.0878 1.16406 14.0005C1.16406 6.91294 6.91054 1.16668 13.998 1.1665ZM12.248 8.94775C11.8874 8.73974 11.4427 8.73988 11.082 8.94775C10.7212 9.1561 10.4982 9.54181 10.498 9.9585V18.0415C10.4981 18.4583 10.7211 18.8439 11.082 19.0522C11.4427 19.2602 11.8873 19.2603 12.248 19.0522L15.748 17.0308L19.248 15.0103C19.6088 14.8018 19.832 14.4162 19.832 13.9995C19.8318 13.583 19.6087 13.198 19.248 12.9897L15.748 10.9692L12.248 8.94775Z" fill="white"/>
</svg>
