<svg width="16" height="16" viewBox="0 0 16 16" fill="none" xmlns="http://www.w3.org/2000/svg">
<path d="M0.844061 7.57455C0.299495 7.67851 0.299448 8.47755 0.844 8.58158L0.844943 8.58176C3.95964 9.17675 6.3963 11.6726 6.97705 14.8627C7.07863 15.4207 7.85874 15.4207 7.96024 14.8629C8.54075 11.6729 10.9772 9.17708 14.0917 8.58202L14.0936 8.58165C14.6381 8.47761 14.6381 7.67856 14.0935 7.57462C10.9781 6.97998 8.5409 4.48383 7.96028 1.29314C7.85879 0.735387 7.07863 0.735367 6.97711 1.29312C6.39632 4.48385 3.9592 6.97988 0.844061 7.57455Z" fill="white"/>
<path d="M11.8974 2.57549C11.734 2.60667 11.734 2.84639 11.8976 2.87765C12.832 3.05615 13.563 3.80489 13.7373 4.76195C13.7677 4.92933 14.0018 4.92933 14.0322 4.76201C14.2064 3.80499 14.9373 3.05625 15.8722 2.87762C16.0356 2.84641 16.0356 2.60669 15.8722 2.57551C14.9376 2.39712 14.2064 1.64827 14.0322 0.691066C14.0018 0.523739 13.7677 0.523733 13.7373 0.691058C13.563 1.64828 12.8319 2.39709 11.8974 2.57549Z" fill="white"/>
<path d="M0.0975736 13.2156C-0.0331218 13.2405 -0.0331337 13.4323 0.097785 13.4573C0.845313 13.6001 1.43011 14.1991 1.56949 14.9647C1.59387 15.0986 1.7811 15.0986 1.80546 14.9648C1.94478 14.1992 2.52952 13.6002 3.27746 13.4573C3.40815 13.4323 3.40814 13.2405 3.27744 13.2156C2.52974 13.0729 1.94481 12.4738 1.80547 11.708C1.78111 11.5742 1.59387 11.5742 1.5695 11.708C1.43012 12.4738 0.845208 13.0728 0.0975736 13.2156Z" fill="white"/>
</svg>
