<svg width="32" height="32" viewBox="0 0 32 32" fill="none" xmlns="http://www.w3.org/2000/svg">
<path d="M4.55527 15.151C3.61448 15.3263 3.6144 16.6741 4.55516 16.8495L4.55679 16.8498C9.93771 17.8534 14.1472 22.0632 15.1506 27.4441C15.326 28.3853 16.6737 28.3852 16.8491 27.4445C17.852 22.0637 22.0611 17.854 27.4417 16.8503L27.445 16.8497C28.3858 16.6742 28.3856 15.3264 27.4448 15.1511C22.0627 14.1481 17.8522 9.93777 16.8492 4.55595C16.6738 3.61517 15.326 3.61514 15.1506 4.55591C14.1473 9.9378 9.93695 14.1479 4.55527 15.151Z" fill="white"/>
<path d="M23.6525 6.71831C23.3703 6.77091 23.3703 7.17524 23.653 7.22797C25.2672 7.52905 26.5301 8.79197 26.8311 10.4063C26.8837 10.6886 27.2881 10.6886 27.3407 10.4064C27.6415 8.79214 28.9043 7.52921 30.5194 7.22792C30.8017 7.17527 30.8016 6.77094 30.5194 6.71835C28.9047 6.41745 27.6416 5.15435 27.3407 3.53981C27.2881 3.25757 26.8837 3.25756 26.8311 3.53979C26.5301 5.15436 25.267 6.4174 23.6525 6.71831Z" fill="white"/>
<path d="M3.26498 24.6654C3.03919 24.7074 3.03917 25.0309 3.26535 25.0731C4.55677 25.314 5.56705 26.3243 5.80785 27.6157C5.84996 27.8416 6.17341 27.8416 6.2155 27.6158C6.45619 26.3244 7.46638 25.3141 8.75852 25.0731C8.9843 25.0309 8.98427 24.7075 8.75848 24.6654C7.46675 24.4247 6.45625 23.4142 6.21551 22.1226C6.17343 21.8968 5.84996 21.8968 5.80787 22.1226C5.56706 23.4142 4.55658 24.4246 3.26498 24.6654Z" fill="white"/>
</svg>
