<svg width="32" height="32" viewBox="0 0 32 32" fill="none" xmlns="http://www.w3.org/2000/svg">
<g clip-path="url(#clip0_629_3730)">
<path d="M16.332 25.5C14.7755 25.5 13.3831 25.2638 12.155 24.7915C10.9412 24.3192 9.913 23.6608 9.07046 22.8164C8.22792 21.9719 7.58531 20.9844 7.14262 19.8537C6.71421 18.7087 6.5 17.4706 6.5 16.1395C6.5 14.8228 6.72849 13.5847 7.18546 12.4254C7.65671 11.2661 8.32074 10.2427 9.17756 9.35537C10.0487 8.46798 11.0769 7.77382 12.2621 7.27288C13.4617 6.75763 14.7969 6.5 16.2678 6.5C17.6815 6.5 18.9525 6.72185 20.0806 7.16554C21.223 7.60923 22.1941 8.21751 22.9938 8.9904C23.8078 9.76328 24.429 10.6578 24.8574 11.674C25.2858 12.6759 25.5 13.7422 25.5 14.8729C25.5 16.161 25.2929 17.2631 24.8788 18.1791C24.479 19.0951 23.9149 19.7964 23.1866 20.2831C22.4726 20.7697 21.6443 21.013 20.7018 21.013C19.8735 21.013 19.288 20.8699 18.9453 20.5836C18.6026 20.2974 18.3741 20.004 18.2599 19.7034C17.9314 20.19 17.4887 20.5621 16.9318 20.8198C16.3891 21.0774 15.7822 21.2062 15.111 21.2062C14.1543 21.2062 13.3831 20.9486 12.7976 20.4333C12.2264 19.9038 11.9408 19.2239 11.9408 18.3938C11.9408 17.807 12.105 17.2774 12.4335 16.8051C12.7619 16.3185 13.3688 15.8962 14.2542 15.5384C15.1539 15.1806 16.4391 14.9015 18.1099 14.7011V14.1644C18.1099 12.7904 17.3888 12.1034 15.9464 12.1034C15.3324 12.1034 14.8112 12.2823 14.3828 12.6401C13.9686 12.9836 13.7473 13.4202 13.7187 13.9497H11.9408C11.9551 13.3056 12.1336 12.7403 12.4763 12.2537C12.8333 11.767 13.3046 11.3878 13.8901 11.1158C14.4899 10.8296 15.161 10.6864 15.9036 10.6864C18.5598 10.6864 19.8878 11.903 19.8878 14.3362V18.5226C19.8878 18.8375 19.9735 19.0879 20.1449 19.274C20.3162 19.4458 20.609 19.5316 21.0231 19.5316C21.8228 19.5316 22.4583 19.1309 22.9295 18.3294C23.4008 17.5279 23.6364 16.4043 23.6364 14.9588C23.6364 14.0284 23.4722 13.1554 23.1437 12.3395C22.8153 11.5094 22.3298 10.7795 21.6871 10.1497C21.0588 9.50565 20.2805 9.00471 19.3523 8.64689C18.4384 8.27476 17.3959 8.0887 16.2249 8.0887C15.0111 8.0887 13.9186 8.30339 12.9476 8.73277C11.9908 9.14783 11.1697 9.7275 10.4842 10.4718C9.81304 11.216 9.29895 12.0748 8.94194 13.048C8.58493 14.0213 8.40643 15.0518 8.40643 16.1395C8.40643 17.5851 8.72059 18.9019 9.34893 20.0898C9.99154 21.2635 10.9126 22.1938 12.1122 22.8808C13.326 23.5678 14.7897 23.9113 16.5034 23.9113C17.6315 23.9113 18.6811 23.8111 19.6522 23.6107C20.6233 23.4247 21.5443 23.1527 22.4154 22.7949V24.3407C21.5015 24.7271 20.559 25.0134 19.5879 25.1994C18.6169 25.3998 17.5316 25.5 16.332 25.5ZM15.5609 19.7893C16.3606 19.7893 16.9818 19.5316 17.4245 19.0164C17.8814 18.5011 18.1099 17.7998 18.1099 16.9124V16.0107C16.9389 16.1395 16.0393 16.3185 15.4109 16.5475C14.7969 16.7765 14.3685 17.0412 14.1257 17.3418C13.8972 17.6424 13.783 17.9644 13.783 18.3079C13.783 18.7516 13.9401 19.1094 14.2542 19.3814C14.5684 19.6533 15.0039 19.7893 15.5609 19.7893Z" fill="#A5A5A6"/>
</g>
<defs>
<clipPath id="clip0_629_3730">
<rect width="32" height="32" fill="white"/>
</clipPath>
</defs>
</svg>
