<svg width="18" height="18" viewBox="0 0 18 18" fill="none" xmlns="http://www.w3.org/2000/svg">
<path fill-rule="evenodd" clip-rule="evenodd" d="M9 16.5C13.1421 16.5 16.5 13.1421 16.5 9C16.5 4.85786 13.1421 1.5 9 1.5C4.85786 1.5 1.5 4.85786 1.5 9C1.5 13.1421 4.85786 16.5 9 16.5Z" stroke="white" stroke-width="1.5" stroke-linecap="round" stroke-linejoin="round"/>
<path d="M9 8.625C10.0355 8.625 10.875 7.78552 10.875 6.75C10.875 5.71448 10.0355 4.875 9 4.875C7.96448 4.875 7.125 5.71448 7.125 6.75C7.125 7.78552 7.96448 8.625 9 8.625Z" stroke="white" stroke-width="1.5" stroke-linejoin="round"/>
<path d="M3.75781 14.3745C3.8867 12.4202 5.51266 10.875 7.49956 10.875H10.4996C12.4838 10.875 14.1082 12.4161 14.2408 14.3667" stroke="white" stroke-width="1.5" stroke-linecap="round" stroke-linejoin="round"/>
</svg>
