<svg width="18" height="18" viewBox="0 0 18 18" fill="none" xmlns="http://www.w3.org/2000/svg">
<path d="M8.99999 15.875C12.7969 15.875 15.875 12.797 15.875 9.00001C15.875 5.20306 12.7969 2.125 8.99999 2.125C5.20304 2.125 2.125 5.20306 2.125 9.00001C2.125 9.93214 2.55261 10.3826 3.2302 10.7793C3.90779 11.1759 5.18253 11.1101 6.04964 11.888C6.91675 12.666 6.97529 13.9315 7.15484 14.5464C7.33443 15.1613 8.06785 15.875 8.99999 15.875Z" stroke="#A1A1A1" stroke-width="1.5" stroke-linejoin="round"/>
<path d="M7.32238 6.95294C7.12048 7.44348 7.01953 8.01997 7.01953 8.68237C7.01953 9.31233 7.08639 9.93599 7.22019 10.5534C7.35422 11.1718 7.96427 11.5646 8.58272 11.4306C8.60518 11.4257 8.62749 11.4201 8.64962 11.4139C9.32447 11.2246 9.91217 10.9767 10.4127 10.6702C10.8807 10.3837 11.3167 10.022 11.7208 9.58499C12.1505 9.1204 12.1222 8.39545 11.6575 7.96578C11.6443 7.95352 11.6307 7.94155 11.6168 7.92993C11.1418 7.53063 10.6447 7.17202 10.1253 6.85402C9.58299 6.52203 9.05188 6.3217 8.53194 6.25308C8.01673 6.18505 7.52019 6.47234 7.32238 6.95294Z" stroke="#A1A1A1" stroke-width="1.5" stroke-linejoin="round"/>
</svg>
