<svg width="18" height="18" viewBox="0 0 18 18" fill="none" xmlns="http://www.w3.org/2000/svg">
<path d="M8.5 2.25V15.75C5.875 15.75 3.92444 12.3147 3.92444 12.3147H1.75C1.33579 12.3147 1 11.9789 1 11.5647V6.37905C1 5.96482 1.33579 5.62905 1.75 5.62905H3.92444C3.92444 5.62905 5.875 2.25 8.5 2.25Z" stroke="white" stroke-width="1.5" stroke-linejoin="round"/>
<path d="M16.2422 6.87524C16.111 7.00641 15.9641 7.1533 15.8041 7.31337C15.3346 7.78279 14.752 8.36542 14.1209 8.99656C13.4952 9.62224 12.9172 10.2002 12.4499 10.6675C12.2851 10.8323 12.1341 10.9834 11.9995 11.1179" stroke="white" stroke-width="1.5" stroke-linecap="round" stroke-linejoin="round"/>
<path d="M16.25 11.1179C16.1188 10.9868 15.9719 10.8399 15.8119 10.6798C15.3425 10.2104 14.7598 9.62774 14.1287 8.9966C13.503 8.37093 12.925 7.79294 12.4577 7.32564C12.2929 7.16083 12.1419 7.00979 12.0074 6.87528" stroke="white" stroke-width="1.5" stroke-linecap="round" stroke-linejoin="round"/>
</svg>
