<svg width="18" height="18" viewBox="0 0 18 18" fill="none" xmlns="http://www.w3.org/2000/svg">
<path d="M8.5 2.25V15.75C5.875 15.75 3.92444 12.3147 3.92444 12.3147H1.75C1.33579 12.3147 1 11.9789 1 11.5647V6.37905C1 5.96482 1.33579 5.62905 1.75 5.62905H3.92444C3.92444 5.62905 5.875 2.25 8.5 2.25Z" stroke="white" stroke-width="1.5" stroke-linejoin="round"/>
<path d="M11.5 5.625C11.7337 5.83369 11.9455 6.06739 12.1315 6.32205C12.677 7.0689 13 7.99586 13 9C13 9.99544 12.6826 10.915 12.1457 11.6585C11.9563 11.9207 11.7397 12.161 11.5 12.375" stroke="white" stroke-width="1.5" stroke-linecap="round" stroke-linejoin="round"/>
<path d="M15.25 3C15.5616 3.371 15.8441 3.78647 16.0921 4.2392C16.8194 5.56693 17.25 7.21487 17.25 9C17.25 10.7697 16.8268 12.4045 16.1109 13.7262C15.8584 14.1923 15.5696 14.6195 15.25 15" stroke="white" stroke-width="1.5" stroke-linecap="round" stroke-linejoin="round"/>
</svg>
