<svg width="24" height="24" viewBox="0 0 24 24" fill="none" xmlns="http://www.w3.org/2000/svg">
<path d="M19.9729 11.9998C16.0161 12.923 12.9235 16.0162 12 19.9727C11.0765 16.0167 7.98444 12.9237 4.02848 11.9998C7.98455 11.0759 11.0766 7.98342 12 4.02692C12.9233 7.9838 16.0159 11.0763 19.9729 11.9998Z" stroke="white" stroke-width="1.5"/>
<path d="M17.7389 5.03867C17.5272 5.07812 17.5272 5.38137 17.7392 5.42092C18.9499 5.64672 19.8971 6.59392 20.1228 7.80464C20.1623 8.01639 20.4656 8.01638 20.505 7.80471C20.7307 6.59404 21.6777 5.64685 22.8891 5.42088C23.1008 5.38139 23.1007 5.07814 22.8891 5.0387C21.6781 4.81302 20.7307 3.8657 20.505 2.65479C20.4656 2.44312 20.1623 2.44311 20.1229 2.65478C19.8971 3.86571 18.9498 4.81299 17.7389 5.03867Z" fill="white"/>
<path d="M2.44874 18.4989C2.27939 18.5305 2.27938 18.7731 2.44901 18.8047C3.41757 18.9853 4.17529 19.7431 4.35589 20.7117C4.38747 20.8811 4.63006 20.8811 4.66162 20.7117C4.84214 19.7432 5.59978 18.9854 6.56889 18.8047C6.73822 18.7731 6.7382 18.5305 6.56886 18.4989C5.60007 18.3184 4.84219 17.5605 4.66164 16.5918C4.63007 16.4225 4.38747 16.4225 4.3559 16.5918C4.1753 17.5605 3.41744 18.3184 2.44874 18.4989Z" fill="white"/>
</svg>
