<svg width="24" height="24" viewBox="0 0 24 24" fill="none" xmlns="http://www.w3.org/2000/svg">
<path d="M14.8776 17.4668L14.5381 21.5415C14.5165 21.8007 14.2998 22 14.0398 22H9.95992C9.69987 22 9.48322 21.8007 9.46167 21.5415L9.12207 17.4668" stroke="white" stroke-width="2" stroke-linecap="round" stroke-linejoin="round"/>
<path d="M12 1C16.9706 1 21 5.02942 21 10C21 13.8309 18.6066 17.1 15.2373 18.3994C15.1226 18.4436 15.0009 18.4668 14.8779 18.4668H9.12207C8.99913 18.4668 8.87741 18.4436 8.7627 18.3994C5.39336 17.1 3 13.8309 3 10C3 5.02942 7.02942 1 12 1ZM15 7.5C14.4477 7.5 14 7.94772 14 8.5V9.88184L12.4473 9.10547C12.1657 8.9647 11.8343 8.9647 11.5527 9.10547L10 9.88184V8.5C10 7.94772 9.55228 7.5 9 7.5C8.44772 7.5 8 7.94772 8 8.5V11.5C8 11.8466 8.17979 12.1684 8.47461 12.3506C8.76939 12.5327 9.13735 12.5495 9.44727 12.3945L12 11.1182L14.5527 12.3945C14.8626 12.5495 15.2306 12.5327 15.5254 12.3506C15.8202 12.1684 16 11.8466 16 11.5V8.5C16 7.94772 15.5523 7.5 15 7.5Z" fill="white"/>
</svg>
