<svg width="16" height="16" viewBox="0 0 16 16" fill="none" xmlns="http://www.w3.org/2000/svg">
<path d="M8.00026 14.1114C11.3753 14.1114 14.1114 11.3753 14.1114 8.00028C14.1114 4.62521 11.3753 1.88916 8.00026 1.88916C4.6252 1.88916 1.88916 4.62521 1.88916 8.00028C1.88916 8.82884 2.26925 9.22928 2.87156 9.58184C3.47386 9.93441 4.60696 9.87588 5.37773 10.5674C6.1485 11.2589 6.20053 12.3838 6.36013 12.9304C6.51976 13.477 7.1717 14.1114 8.00026 14.1114Z" stroke="white" stroke-linejoin="round"/>
<path d="M6.50895 6.18023C6.32948 6.61626 6.23975 7.1287 6.23975 7.7175C6.23975 8.27746 6.29918 8.83183 6.41811 9.38063C6.53725 9.93036 7.07951 10.2795 7.62925 10.1603C7.64921 10.156 7.66905 10.1511 7.68871 10.1456C8.28858 9.97723 8.81098 9.75686 9.25591 9.4845C9.67188 9.2298 10.0594 8.90826 10.4187 8.51983C10.8006 8.10686 10.7754 7.46246 10.3624 7.08053C10.3506 7.06963 10.3385 7.059 10.3262 7.04866C9.90401 6.69373 9.46208 6.37496 9.00041 6.0923C8.51838 5.7972 8.04628 5.61913 7.58411 5.55813C7.12615 5.49766 6.68478 5.75303 6.50895 6.18023Z" stroke="white" stroke-linejoin="round"/>
</svg>
