<svg width="16" height="16" viewBox="0 0 16 16" fill="none" xmlns="http://www.w3.org/2000/svg">
<path fill-rule="evenodd" clip-rule="evenodd" d="M11.6631 1.91504C11.8886 1.91504 12.1035 2.0034 12.2509 2.15625L15.2558 5.27148C15.5123 5.53747 15.5062 5.9333 15.2422 6.19336L8.22555 13.7939C8.07627 13.9557 7.81234 13.9557 7.66305 13.7939L0.646453 6.19336C0.382434 5.93328 0.37624 5.53748 0.632781 5.27148L3.63766 2.15625C3.78502 2.0035 3.99921 1.91515 4.22458 1.91504H11.6631ZM5.65134 6.33594C5.46795 6.12963 5.15168 6.11072 4.94528 6.29395C4.7394 6.47739 4.7202 6.79376 4.90329 7L7.57028 10C7.66507 10.1066 7.80166 10.1679 7.9443 10.168C8.08676 10.1679 8.22256 10.1063 8.31735 10L10.9843 7C11.1677 6.79361 11.1487 6.47738 10.9424 6.29395C10.736 6.11091 10.4206 6.12976 10.2373 6.33594L7.94333 8.91504L5.65134 6.33594Z" fill="black"/>
</svg>
