<svg width="16" height="16" viewBox="0 0 16 16" fill="none" xmlns="http://www.w3.org/2000/svg">
<path d="M5.36719 8.60975L12.9097 2.01007C12.9097 2.01007 13.6168 1.30296 14.3239 2.01007C15.031 2.71718 14.3239 3.42428 14.3239 3.42428L7.72419 10.9667L5.36719 8.60975Z" stroke="white" stroke-linejoin="round"/>
<path d="M7.48828 6.95947L9.37388 8.84511" stroke="white" stroke-linecap="round" stroke-linejoin="round"/>
<path d="M1.83114 10.2593L5.36667 8.60938L7.7237 10.9664L6.07377 14.5019C6.07377 14.5019 4.42387 14.7376 3.00965 13.3234C1.59543 11.9092 1.83114 10.2593 1.83114 10.2593Z" stroke="white" stroke-linejoin="round"/>
<path d="M2.30078 12.1451L3.9507 11.438" stroke="white" stroke-linecap="round" stroke-linejoin="round"/>
<path d="M4.1875 14.0307L4.6589 13.0879" stroke="white" stroke-linecap="round" stroke-linejoin="round"/>
<path d="M6.30859 7.78421L7.25139 6.95924L8.19423 6.13428" stroke="white" stroke-linejoin="round"/>
<path d="M10.2007 8.13818L9.37571 9.08098L8.55078 10.0238" stroke="white" stroke-linejoin="round"/>
</svg>
