<svg xmlns="http://www.w3.org/2000/svg" width="24" height="24" viewBox="0 0 16.5 16.5" role="img" aria-label="角色库"><g transform="translate(-8.2666 -8.0996)">
<path d="M16.5166 8.09961C19.232 8.09961 21.4336 10.3012 21.4336 13.0166C21.4336 14.662 20.624 16.1173 19.3828 17.0098C20.2632 17.3787 21.0727 17.9174 21.7607 18.6055C23.1516 19.9963 23.9335 21.8827 23.9336 23.8496C23.9336 24.2637 23.5977 24.6004 23.1836 24.6006C22.7694 24.6006 22.4326 24.2638 22.4326 23.8496C22.4325 22.2805 21.8097 20.7755 20.7002 19.666C19.5906 18.5565 18.0857 17.9336 16.5166 17.9336C14.9475 17.9336 13.4426 18.5565 12.333 19.666C11.2235 20.7755 10.6007 22.2805 10.6006 23.8496C10.6006 24.2638 10.2638 24.6006 9.84961 24.6006C9.43555 24.6004 9.09961 24.2637 9.09961 23.8496C9.0997 21.8827 9.88164 19.9963 11.2725 18.6055C11.9603 17.9176 12.7693 17.3787 13.6494 17.0098C12.4086 16.1173 11.5996 14.6617 11.5996 13.0166C11.5996 10.3012 13.8012 8.09961 16.5166 8.09961ZM16.5166 9.60059C14.6296 9.60059 13.1006 11.1296 13.1006 13.0166C13.1006 14.9036 14.6296 16.4326 16.5166 16.4326C18.4036 16.4326 19.9326 14.9036 19.9326 13.0166C19.9326 11.1296 18.4036 9.60059 16.5166 9.60059Z" fill="currentColor"/>
</g></svg>
