<svg xmlns="http://www.w3.org/2000/svg" width="24" height="24" viewBox="0 0 16 16" role="img" aria-label="隐藏节点连线"><g transform="translate(2.2246 1.6416)"><path d="M9.27539 0C10.5318 8.76359e-05 11.5508 1.019 11.5508 2.27539C11.5507 3.53171 10.5317 4.55069 9.27539 4.55078C8.19994 4.55078 7.29981 3.8037 7.0625 2.80078H2.56738C2.16514 2.80078 1.77857 2.95971 1.49414 3.24414C1.20971 3.52857 1.05078 3.91514 1.05078 4.31738C1.05091 4.71945 1.20983 5.10533 1.49414 5.38965C1.77857 5.67408 2.16514 5.83301 2.56738 5.83301H8.9834C9.66412 5.83301 10.3175 6.10362 10.7988 6.58496C11.2802 7.0663 11.5508 7.71967 11.5508 8.40039C11.5507 9.0809 11.2799 9.73357 10.7988 10.2148C10.3175 10.6962 9.66412 10.9668 8.9834 10.9668H4.48828C4.25113 11.9699 3.35092 12.7167 2.27539 12.7168C1.01911 12.7168 0.000263521 11.6986 0 10.4424C0 9.18593 1.01894 8.16699 2.27539 8.16699C3.35092 8.16707 4.25113 8.91392 4.48828 9.91699H8.9834C9.38564 9.91699 9.77221 9.75709 10.0566 9.47266C10.3408 9.1883 10.5 8.80242 10.5 8.40039C10.5 7.99815 10.3411 7.61158 10.0566 7.32715C9.77221 7.04272 9.38564 6.88379 8.9834 6.88379H2.56738C1.88666 6.88379 1.2333 6.61318 0.751953 6.13184C0.270725 5.65061 0.000129294 4.99793 0 4.31738C0 3.63666 0.27061 2.9833 0.751953 2.50195C1.2333 2.02061 1.88666 1.75 2.56738 1.75H7.0625C7.2997 0.746921 8.19983 0 9.27539 0ZM2.27539 9.2168C1.59884 9.2168 1.05078 9.76583 1.05078 10.4424C1.05104 11.1187 1.599 11.667 2.27539 11.667C2.9517 11.6669 3.49974 11.1187 3.5 10.4424C3.5 9.76589 2.95186 9.21688 2.27539 9.2168ZM9.27539 1.05078C8.59884 1.05078 8.05078 1.59884 8.05078 2.27539C8.05087 2.95186 8.5989 3.5 9.27539 3.5C9.95181 3.49991 10.4999 2.95181 10.5 2.27539C10.5 1.5989 9.95186 1.05087 9.27539 1.05078Z" fill="#FFFFFF"/></g></svg>
