<svg xmlns="http://www.w3.org/2000/svg" width="24" height="24" viewBox="0 0 16 16" role="img" aria-label="显示节点连线"><g transform="translate(1.6414 1.6414)"><path d="M0.153406 0.154297C0.358433 -0.0507085 0.691552 -0.0507218 0.89657 0.154297L12.5636 11.8203C12.7685 12.0253 12.7685 12.3585 12.5636 12.5635C12.3586 12.7685 12.0254 12.7684 11.8204 12.5635L10.1563 10.8994C10.0047 10.929 9.84013 10.9553 9.68173 10.9639L9.56649 10.9668H5.07138C4.83421 11.9699 3.93406 12.7168 2.85848 12.7168C1.60223 12.7168 0.583357 11.6986 0.583094 10.4424C0.583094 9.18596 1.60207 8.16703 2.85848 8.16699C3.93406 8.16701 4.83421 8.91388 5.07138 9.91699H9.17391L6.14071 6.88379H3.14755C2.55228 6.88064 1.97663 6.66869 1.51962 6.28613C1.06294 5.90371 0.752816 5.37411 0.640711 4.78809C0.528634 4.20184 0.621801 3.5937 0.904383 3.06836C1.06665 2.76686 1.28557 2.50287 1.54696 2.29004L0.153406 0.896484C-0.0511897 0.691584 -0.0510812 0.359264 0.153406 0.154297ZM2.85848 9.2168C2.18197 9.21684 1.63388 9.76586 1.63388 10.4424C1.63414 11.1187 2.18213 11.667 2.85848 11.667C3.53485 11.667 4.08283 11.1187 4.08309 10.4424C4.08309 9.76585 3.53502 9.21682 2.85848 9.2168ZM9.71298 5.83496C10.3432 5.87013 10.9385 6.13573 11.3849 6.58203C11.8313 7.02848 12.0978 7.62449 12.1329 8.25488C12.1487 8.54409 11.927 8.7914 11.6378 8.80762C11.3483 8.82366 11.1002 8.60196 11.0841 8.3125C11.0633 7.94027 10.9062 7.5889 10.6427 7.3252C10.3789 7.06145 10.0268 6.90362 9.65438 6.88281C9.36503 6.86658 9.14322 6.61847 9.15927 6.3291C9.17559 6.0398 9.42362 5.81886 9.71298 5.83496ZM2.29696 3.04004C2.10411 3.17541 1.94218 3.35456 1.82821 3.56641C1.66027 3.87885 1.60515 4.24123 1.67196 4.59082C1.73885 4.94035 1.92329 5.25521 2.19345 5.48145C2.46369 5.70766 2.80358 5.83117 3.15341 5.83301H5.09091L2.29696 3.04004ZM9.85848 0C11.1149 2.14448e-05 12.1339 1.01896 12.1339 2.27539C12.1338 3.53175 11.1149 4.55076 9.85848 4.55078C8.78304 4.55075 7.88288 3.8037 7.64559 2.80078H5.60067C5.31078 2.80078 5.07537 2.56527 5.07528 2.27539C5.07528 1.98544 5.31072 1.75 5.60067 1.75H7.64559C7.88277 0.746923 8.78293 3.46318e-05 9.85848 0ZM9.85848 1.05078C9.18197 1.05082 8.63388 1.59886 8.63388 2.27539C8.63396 2.95184 9.18203 3.49996 9.85848 3.5C10.535 3.49998 11.083 2.95185 11.0831 2.27539C11.0831 1.59885 10.535 1.0508 9.85848 1.05078Z" fill="#FFFFFF"/></g></svg>
