<svg width="30" height="27" viewBox="0 0 30 27" fill="none" xmlns="http://www.w3.org/2000/svg">
<path d="M22.8826 25.9305C22.5387 25.9305 22.3668 25.7543 22.3668 25.4021V19.1788C22.3668 18.8265 22.5387 18.6504 22.8826 18.6504H29.4842C29.828 18.6504 30 18.8265 30 19.1788V25.4021C30 25.7543 29.828 25.9305 29.4842 25.9305H22.8826Z" fill="white"/>
<path d="M0.515752 26.087C0.171917 26.087 0 25.9239 0 25.5977V7.45621C0 7.28661 0.0687669 7.09091 0.206301 6.86911L5.09563 0.293551C5.24692 0.0978505 5.46697 0 5.75579 0H12.5844C12.8869 0 13.107 0.0978505 13.2445 0.293551L18.1545 6.86911C18.292 7.05176 18.3608 7.24747 18.3608 7.45621V25.5977C18.3608 25.9239 18.1889 26.087 17.845 26.087H12.0067C11.6629 26.087 11.491 25.9239 11.491 25.5977V17.2804H6.89045V25.5977C6.89045 25.9239 6.71853 26.087 6.3747 26.087H0.515752ZM9.18039 13.0728C10.4457 13.0728 11.2984 12.8119 11.7385 12.29C12.1924 11.7551 12.4193 10.744 12.4193 9.25667C12.4193 7.76934 12.1924 6.76474 11.7385 6.24287C11.2984 5.70795 10.4457 5.44049 9.18039 5.44049C7.92883 5.44049 7.07612 5.70795 6.62226 6.24287C6.18215 6.76474 5.96209 7.76934 5.96209 9.25667C5.96209 10.744 6.18215 11.7551 6.62226 12.29C7.07612 12.8119 7.92883 13.0728 9.18039 13.0728Z" fill="white"/>
</svg>
