<svg width="16" height="16" viewBox="0 0 16 16" fill="none" xmlns="http://www.w3.org/2000/svg">
<path d="M0.844549 7.57455C0.299983 7.67851 0.299936 8.47755 0.844488 8.58158L0.845431 8.58176C3.96013 9.17675 6.39678 11.6726 6.97754 14.8627C7.07912 15.4207 7.85923 15.4207 7.96072 14.8629C8.54124 11.6729 10.9776 9.17708 14.0922 8.58202L14.0941 8.58165C14.6386 8.47761 14.6386 7.67856 14.094 7.57462C10.9786 6.97998 8.54139 4.48383 7.96077 1.29314C7.85927 0.735387 7.07912 0.735367 6.97759 1.29312C6.39681 4.48385 3.95969 6.97988 0.844549 7.57455Z" fill="currentColor"/>
<path d="M11.8983 2.57549C11.735 2.60667 11.7349 2.84639 11.8986 2.87765C12.833 3.05615 13.564 3.80489 13.7382 4.76195C13.7687 4.92933 14.0027 4.92933 14.0332 4.76201C14.2073 3.80499 14.9383 3.05625 15.8732 2.87762C16.0366 2.84641 16.0365 2.60669 15.8732 2.57551C14.9385 2.39712 14.2074 1.64827 14.0332 0.691066C14.0028 0.523739 13.7687 0.523733 13.7382 0.691058C13.564 1.64828 12.8329 2.39709 11.8983 2.57549Z" fill="currentColor"/>
<path d="M0.0980619 13.2156C-0.0326335 13.2405 -0.0326454 13.4323 0.0982732 13.4573C0.845801 13.6001 1.4306 14.1991 1.56998 14.9647C1.59436 15.0986 1.78158 15.0986 1.80594 14.9648C1.94527 14.1992 2.53 13.6002 3.27795 13.4573C3.40864 13.4323 3.40862 13.2405 3.27793 13.2156C2.53022 13.0729 1.9453 12.4738 1.80595 11.708C1.78159 11.5742 1.59436 11.5742 1.56999 11.708C1.4306 12.4738 0.845696 13.0728 0.0980619 13.2156Z" fill="currentColor"/>
</svg>
