<svg width="18" height="18" viewBox="0 0 18 18" fill="none" xmlns="http://www.w3.org/2000/svg">
<path d="M9 0.5C13.6944 0.5 17.5 4.30558 17.5 9C17.5 9.93593 16.9547 10.5407 16.3457 10.8936C15.7935 11.2135 15.104 11.3837 14.5264 11.5088C13.8852 11.6476 13.3466 11.7385 12.8438 11.8848C12.3332 12.0333 12.0937 12.1801 11.998 12.2881C11.8268 12.4815 11.7011 12.7759 11.6152 13.2275C11.5241 13.7065 11.5067 14.1596 11.4424 14.752C11.3874 15.2579 11.2922 15.9335 10.9512 16.4834C10.7655 16.7826 10.5036 17.0528 10.1455 17.2402C9.7931 17.4246 9.40322 17.5 9 17.5C4.30558 17.5 0.5 13.6944 0.5 9C0.5 4.30558 4.30558 0.5 9 0.5ZM6.375 9.5C5.20138 9.5 4.25 10.4514 4.25 11.625C4.25 12.7986 5.20138 13.75 6.375 13.75C7.54862 13.75 8.5 12.7986 8.5 11.625C8.5 10.4514 7.54862 9.5 6.375 9.5ZM6 4.625C4.82638 4.625 3.875 5.57638 3.875 6.75C3.875 7.92362 4.82638 8.875 6 8.875C7.17362 8.875 8.125 7.92362 8.125 6.75C8.125 5.57638 7.17362 4.625 6 4.625ZM10.5 3.125C9.32638 3.125 8.375 4.07638 8.375 5.25C8.375 6.42362 9.32638 7.375 10.5 7.375C11.6736 7.375 12.625 6.42362 12.625 5.25C12.625 4.07638 11.6736 3.125 10.5 3.125Z" fill="#222222"/>
</svg>
