<svg width="24" height="24" viewBox="0 0 24 24" fill="none" xmlns="http://www.w3.org/2000/svg">
<path fill-rule="evenodd" clip-rule="evenodd" d="M12 22C17.5229 22 22 17.5229 22 12C22 6.47715 17.5229 2 12 2C6.47715 2 2 6.47715 2 12C2 17.5229 6.47715 22 12 22Z" stroke="white" stroke-width="1.5" stroke-linecap="round" stroke-linejoin="round"/>
<path d="M12 11.5C13.3807 11.5 14.5 10.3807 14.5 9C14.5 7.6193 13.3807 6.5 12 6.5C10.6193 6.5 9.5 7.6193 9.5 9C9.5 10.3807 10.6193 11.5 12 11.5Z" fill="white" stroke="white" stroke-width="1.5" stroke-linejoin="round"/>
<path d="M5.01123 19.166C5.18308 16.5603 7.35103 14.5 10.0002 14.5H14.0002C16.6459 14.5 18.8117 16.5548 18.9886 19.1556" fill="white"/>
<path d="M18.9886 19.1556C18.8117 16.5548 16.6459 14.5 14.0002 14.5H10.0002C7.35103 14.5 5.18308 16.5603 5.01123 19.166L12 22L18.9886 19.166" stroke="white" stroke-width="1.5" stroke-linecap="round" stroke-linejoin="round"/>
<path d="M12 22L19 19L18.5 18L15.5 17.5H7L5.5 19L6.5 20L12 22Z" fill="white"/>
</svg>
